<svg id="Layer_1" data-name="Layer 1" xmlns="http://www.w3.org/2000/svg" width="520" height="520" viewBox="0 0 520 520">
  <g>
    <path d="M392.791,507.832H322.42679c-4.9131-13.6093-9.792-27.123-14.67-40.6347h-94.7822q-7.059,20.184-14.2285,40.6787h-69.626c5.7051-13.9444,12.0498-27.3291,17.9151-40.9141,5.9853-13.8603,12.1455-27.6455,18.2763-41.4433,6.0655-13.6504,12.2149-27.2627,18.2793-40.9131q9.09375-20.46975,18.09569-40.9795,9.0396-20.49465,18.0694-40.9922,9.14355-20.7231,18.3066-41.4356c6.0479-13.6357,12.1318-27.2548,18.1006-40.6591-.8086-1.7452-2.2686-1.8858-3.3438-2.5625a15.3147,15.3147,0,0,1-4.3476-21.8506c5.4365-7.4531,15.373-8.5362,21.9834-2.7071,7.3476,6.4795,7.5478,16.3086-.0313,23.0596a20.69808,20.69808,0,0,1-5.1504,3.0274C307.60639,315.4717,350.22749,411.2773,392.791,507.832ZM261.21779,333.5977c-2.6934,4.6445-29.5,78.3466-29.9512,82.1474h59.3809C280.86129,388.4307,271.16019,361.3506,261.21779,333.5977Z" style="fill: #231f20;fill-rule: evenodd"/>
    <path d="M351.55959,338.2783c83.8935-60.2002,87.6631-167.5517,34.3681-232.7461-31.6259-38.6875-72.666-59.5215-122.9013-60.5039-49.6807-.9717-91.36529,17.8018-124.06939,54.8028-31.7158,35.8837-44.9404,78.5488-38.7597,126.0839,6.1435,47.2422,30.0263,84.4971,68.8613,112.7071-4.3145,9.9365-8.6328,19.8847-13.1514,30.291-5.1709-3.6699-10.2851-6.9365-14.9834-10.7207a196.90338,196.90338,0,0,1-19.372-17.1758,209.98223,209.98223,0,0,1-30.334-40.4863A183.45864,183.45864,0,0,1,74.9697,262.751a170.64662,170.64662,0,0,1-6.0302-25.9707c-.9063-6.3887-1.5997-12.7637-2.1036-19.1963-.3232-4.125-.7011-8.2363-.7255-12.375-.0459-7.626,1.1054-15.1543,1.7597-22.7266a150.06877,150.06877,0,0,1,5.1895-27.164,175.98,175.98,0,0,1,10.5019-29.3809c5.0987-10.6318,10.5303-21.0781,17.4287-30.6865a172.53454,172.53454,0,0,1,16.2959-20.0459c3.9258-4.0303,7.6905-8.1826,11.8721-11.9961a193.71554,193.71554,0,0,1,30.9922-23.1846,199.0385,199.0385,0,0,1,45.35739-19.9678,210.158,210.158,0,0,1,21.6719-4.9355,181.78638,181.78638,0,0,1,20.1767-2.2725c4.627-.3418,9.2374-.7021,13.875-.7246,7.46-.0361,14.8204,1.1563,22.22561,1.752a150.55483,150.55483,0,0,1,23.82429,4.2959,187.13484,187.13484,0,0,1,49.9365,20.3662,192.91164,192.91164,0,0,1,21.4258,14.3974c2.7412,2.1368,5.73041,4.0508,8.1005,6.5469,4.4551,4.6924,9.5411,8.6709,13.959,13.4522a192.99421,192.99421,0,0,1,44.2324,75.1982,183.08,183.08,0,0,1,6.7754,29.3477c.66611,4.705,1.1162,9.5224,1.45611,14.3154a155.49507,155.49507,0,0,1,.69039,15.875c-.2217,6.9316-1.0351,13.8242-1.6797,20.7305a174.9453,174.9453,0,0,1-5.166,27.1767,195.37633,195.37633,0,0,1-9.7666,28.0362c-5.2988,12.4433-12.2549,23.8564-20.0176,34.8398a173.2248,173.2248,0,0,1-11.0898,14.0293c-3.5068,4.0098-7.0381,7.9766-10.8799,11.6572a190.30372,190.30372,0,0,1-23.8086,19.5528c-2.1308,1.4638-3.8633,3.7109-6.8799,4.1845C360.248,358.0449,355.94139,348.2471,351.55959,338.2783Z" style="fill: #25aae1;fill-rule: evenodd"/>
    <path d="M325.47749,279.2412c-3.9726-9.0664-7.748-17.6855-11.4921-26.2324a71.96158,71.96158,0,0,0,16.4209-32.749,68.2208,68.2208,0,0,0,.9248-23.6075,76.63707,76.63707,0,0,0-8.3653-25.7714c-4.5449-8.6895-11.3076-15.5557-18.71679-21.7774a63.30863,63.30863,0,0,0-20.85941-11.3183,66.277,66.277,0,0,0-19.33-3.8672,76.73445,76.73445,0,0,0-24.0371,2.8222,69.53037,69.53037,0,0,0-20.583,9.6377,73.24534,73.24534,0,0,0-19.9961,20.6016,69.38818,69.38818,0,0,0-10.67579,29.0654,80.11978,80.11978,0,0,0-.8037,10.8643,70.90443,70.90443,0,0,0,10.98529,36.5869c1.6377,2.6719,3.2012,5.4492,5.55081,7.6162a3.85221,3.85221,0,0,1,.92679,4.9365c-3.5284,7.8213-6.9844,15.6748-10.48539,23.5586-27.1084-21.6201-41.2383-62.4824-30.3525-100.6406a98.79953,98.79953,0,0,1,88.57219-71.8975c49.6143-3.0195,87.42391,28.2041,100.5967,66.5069C367.62209,213.8916,352.80569,257.0059,325.47749,279.2412Z" style="fill: #25aae1;fill-rule: evenodd"/>
  </g>
</svg>