<?xml version="1.0" encoding="UTF-8" standalone="no"?>
<svg version="1.1" viewBox="0 0 100 18" id="svg16" sodipodi:docname="OnlyFans_text.svg" width="100" height="18" inkscape:version="1.1 (c68e22c387, 2021-05-23)" xmlns:inkscape="http://www.inkscape.org/namespaces/inkscape" xmlns:sodipodi="http://sodipodi.sourceforge.net/DTD/sodipodi-0.dtd" xmlns="http://www.w3.org/2000/svg" xmlns:svg="http://www.w3.org/2000/svg" xmlns:rdf="http://www.w3.org/1999/02/22-rdf-syntax-ns#" xmlns:cc="http://creativecommons.org/ns#" xmlns:dc="http://purl.org/dc/elements/1.1/">
  <title id="title853">OnlyFans text</title>
  <metadata id="metadata22">
    <rdf:RDF>
      <cc:Work rdf:about="">
        <dc:format>image/svg+xml</dc:format>
        <dc:type rdf:resource="http://purl.org/dc/dcmitype/StillImage"/>
        <dc:title>OnlyFans text</dc:title>
        <dc:date>28 nov 2020</dc:date>
        <cc:license rdf:resource="http://scripts.sil.org/OFL"/>
      </cc:Work>
      <cc:License rdf:about="http://scripts.sil.org/OFL">
        <cc:permits rdf:resource="http://scripts.sil.org/pub/OFL/Reproduction"/>
        <cc:permits rdf:resource="http://scripts.sil.org/pub/OFL/Distribution"/>
        <cc:permits rdf:resource="http://scripts.sil.org/pub/OFL/Embedding"/>
        <cc:permits rdf:resource="http://scripts.sil.org/pub/OFL/DerivativeWorks"/>
        <cc:requires rdf:resource="http://scripts.sil.org/pub/OFL/Notice"/>
        <cc:requires rdf:resource="http://scripts.sil.org/pub/OFL/Attribution"/>
        <cc:requires rdf:resource="http://scripts.sil.org/pub/OFL/ShareAlike"/>
        <cc:requires rdf:resource="http://scripts.sil.org/pub/OFL/DerivativeRenaming"/>
        <cc:requires rdf:resource="http://scripts.sil.org/pub/OFL/BundlingWhenSelling"/>
      </cc:License>
    </rdf:RDF>
  </metadata>
  <defs id="defs20"/>
  <sodipodi:namedview pagecolor="#ffffff" bordercolor="#666666" borderopacity="1" objecttolerance="10" gridtolerance="10" guidetolerance="10" inkscape:pageopacity="0" inkscape:pageshadow="2" inkscape:window-width="1600" inkscape:window-height="878" id="namedview18" showgrid="false" inkscape:showpageshadow="false" inkscape:zoom="11.313708" inkscape:cx="64.390911" inkscape:cy="2.7400388" inkscape:window-x="-8" inkscape:window-y="-8" inkscape:window-maximized="1" inkscape:current-layer="g851" inkscape:pagecheckerboard="1" height="25px"/>
  <g id="g851" transform="matrix(0.19488325,0,0,0.19488325,11.238751,-50.963878)">
    <g id="g8237" transform="matrix(0.0661616,0,0,0.0661616,111.09518,270.70812)">
      <g id="#00aeefff" transform="matrix(6.8417029,0,0,6.8417029,-2693.5107,-658.73845)">
        <path id="path11" style="fill:#00aeef;fill-opacity:1;stroke-width:1.33333" d="m 306.02539,-75.341797 c -12.4,1.44 -24.83956,2.548177 -37.21289,4.214844 -3.8,0.24 -5.60117,4.238672 -5.20117,7.638672 0.0133,52.053332 -0.0393,104.120496 0.0273,156.173828 -0.13333,13.626663 5.17281,28.999373 18.13281,35.359373 14.50667,7.33334 31.98711,5.66727 46.78711,-0.0527 -2.54666,-8.69334 -4.58612,-17.53248 -7.43945,-26.11914 -1.68,-4.413336 -7.20036,-2.080863 -10.70703,-2.880862 -3.37333,-1.52 -4.47938,-5.533933 -4.35938,-8.947266 -0.0667,-55.119999 -0.014,-110.253387 -0.0273,-165.386719 z m -685.72461,10.642578 c -3.38294,-0.01156 -6.76924,0.15586 -10.14258,0.50586 -38.22666,3.88 -73.15909,31.34487 -84.73242,68.1582028 -8.82667,26.3066662 -5.97383,56.3207302 7.82617,80.4140622 12.16,22.200004 33.56055,38.760054 57.56055,46.386714 9.56,3.12 19.65362,3.98628 29.62695,4.59961 7.73334,-25.61333 15.973,-51.051923 23.98633,-76.558589 0.88,-3.013334 1.48024,-6.094766 2.24024,-9.134766 -6.53334,12.333333 -22.05459,18.521432 -35.28125,14.134766 -16.48,-4.36 -25.81347,-24.986641 -18.4668,-40.306641 3.89333,-9.826666 13.66802,-16.6814584 24.05469,-17.828125 9.41333,-1.1733333 19.10687,2.6528648 25.54687,9.519531 5.58667,6.386667 8.35841,15.013464 7.70508,23.466797 9.56,-27.146666 17.3869,-55.878386 35.24023,-79.011719 -17.955,-15.469999 -41.48346,-24.264765 -65.16406,-24.345703 z m 383.6640638,2.390625 c -4.81279289,0.08119 -9.6021096,0.492032 -14.2871098,1.207032 -16.759999,2.746666 -33.132187,10.253151 -44.492187,23.146484 -14.96,16.586666 -21.573985,39.0535942 -23.333985,60.933594 -1.119999,20.813332 0.519975,42.228047 8.306641,61.748046 7.28,18.293338 21.399584,34.319348 39.90625,41.666018 14.573333,6.64 31.0401047,7.33239 46.773438,6.03906 23.546666,-2.26667 46.266927,-15.81201 57.933593,-36.638671 13.4,-22.906666 16.026198,-50.587553 13.519532,-76.574219 C 86.237682,-3.3945827 78.572005,-26.647344 61.638672,-42.527344 46.147006,-56.805677 24.820279,-62.660423 3.9648438,-62.308594 Z m 0.5898437,32.302735 c 8.4243745,-0.144375 16.9130475,2.195469 23.1230465,8.105468 10.133333,9.493333 12.827058,23.9992195 14.400391,37.199219 1.533333,19.36 1.934713,39.241094 -3.251953,58.121094 C 35.812839,83.486588 29.905416,93.886198 19.71875,98.019531 11.385417,101.25953 1.9314321,101.40518 -6.6152344,98.978516 -16.348567,95.765182 -23.320886,87.033073 -26.574219,77.566406 c -5.653333,-15.613333 -5.839765,-32.508203 -5.759765,-48.908203 0.413333,-14.039999 1.731875,-28.54562522 8.171875,-41.265625 3.946666,-8.12 11.627057,-14.333463 20.4003902,-16.466797 2.7066666,-0.56 5.5082814,-0.883515 8.3164063,-0.93164 z M 196.67969,-18.634766 c -7.67669,-0.05573 -15.37214,1.594141 -22.48047,4.494141 -8.18667,3.96 -15.17313,9.9187762 -21.45313,16.4121094 -0.58666,-6.9333332 -4.05429,-14.9592974 -11.65429,-16.2792964 -9.41334,-0.76 -18.87998,-0.14698 -28.30664,-0.320313 -0.04,42.746665 0.0126,85.493569 -0.0273,128.240235 0.0667,3.48 -0.34578,7.05312 0.57422,10.45312 1.36,2.82667 4.62662,4.04094 7.61328,3.96094 11.4,0.04 22.81323,-0.0133 34.22657,0 0,-28.759997 0.013,-57.519634 -0.0137,-86.292967 0.04,-3.533333 -0.21388,-7.107891 0.43946,-10.587891 1.26666,-4.079999 4.41408,-7.145364 7.10742,-10.332031 5.26666,-6.186666 14.09417,-10.320937 22.1875,-7.960937 4.49333,1.2 7.09174,5.720078 7.70508,10.080078 1.06666,7.106666 0.58669,14.306458 0.69336,21.453125 0.0667,25.733333 -0.13292,51.479558 0.0937,77.212893 -0.13334,3.97333 3.94755,6.50705 7.57421,6.40039 11.56,0.0933 23.1337,-0.0127 34.70704,0.0273 0.0933,-33.239997 -6e-4,-66.46703 0.0527,-99.707029 0.0267,-8.053333 -0.55964,-16.252579 -3.29297,-23.8925785 C 228.95911,-5.3001039 220.6657,-13.740417 210.3457,-16.59375 c -4.46,-1.36 -9.06,-2.007578 -13.66601,-2.041016 z m 145.70508,4.279297 c -6.63,0.015 -13.25925,0.047 -19.89258,0.01367 13.12,43.226666 26.41226,86.400288 39.57226,129.626959 1.25334,3.78666 2.3218,8.14653 5.8418,10.5332 3.58667,2.73333 8.31893,2.38695 12.57227,2.62695 -3.10667,6.6 -6.64047,13.31992 -12.48047,17.91992 -9.29334,7.88 -21.74578,9.97396 -33.42578,11.64063 1.29333,7.98667 2.24044,16.02599 3.78711,23.97266 0.49333,3.73333 4.45333,5.94656 8,5.22656 10.05333,-1.08 20.18544,-3.0263 29.4121,-7.29297 14.66667,-5.94667 27.15985,-17.11899 34.83985,-30.95899 6.10666,-9.99999 9.06763,-21.44046 12.65429,-32.48046 13.84,-43.600005 27.69219,-87.201127 41.49219,-130.814459 -12.82666,0.05333 -25.65185,-0.104974 -38.47851,0.06836 -3.42667,-0.319999 -6.08021,2.505079 -6.54688,5.7050786 C 410.78576,27.99164 402.05247,64.618074 393.11914,101.19141 384.90581,64.551407 376.95841,27.859088 368.70508,-8.7675781 c -0.46667,-3.1199999 -3.11912,-5.8141409 -6.42578,-5.4941409 -6.63334,-0.106666 -13.26453,-0.10875 -19.89453,-0.09375 z" transform="matrix(0.75000002,0,0,0.75000002,385.26104,134.50573)"/>
      </g>
      <g id="#008ccfff" transform="matrix(6.8417029,0,0,6.8417029,-2693.5107,-658.73845)">
        <path id="path22" style="fill:#008ccf;fill-opacity:1;stroke-width:1.33333" d="m -237.64062,-64.6875 c -16.05334,0.146667 -32.3612,0.640677 -47.89454,5.027344 -11.34666,3.28 -21.54666,10.146641 -29,19.30664 -17.85333,23.133333 -25.68023,51.865053 -35.24023,79.011719 -0.97333,3.733333 -2.15859,7.413672 -3.55859,11.013672 -0.76,3.04 -1.36024,6.121432 -2.24024,9.134766 -8.01333,25.506666 -16.25299,50.945259 -23.98633,76.558589 16.05334,-0.24 32.17305,-3.86679 46.37305,-11.46679 19.05333,-9.93334 34.79984,-26.173701 43.83984,-45.707034 0.78667,-1.2 1.05292,-3.345625 2.90625,-3.265625 20.41334,-1.786666 40.9737,-10.092682 54.70703,-25.666015 10.17334,-10.733333 16.43891,-24.666589 19.87891,-38.919922 -18.14666,3.653333 -37.38544,4.96 -55.41211,0 20.09333,-4.1866668 39.97274,-11.5466152 56.05274,-24.613282 15.92,-12.533332 26.95953,-30.720391 31.51953,-50.40039 -19.30667,-0.01333 -38.62532,0.013 -57.94531,-0.01367 z m 727.03124,6.957031 c -3.9246,-0.07725 -7.01289,3.819922 -6.71289,7.669922 -0.0533,59.4533318 -0.0117,118.920054 -0.0117,178.386717 11.88,-0.0133 23.77268,0.0267 35.66601,0 3.01333,0.10667 6.29276,-1.09325 7.74609,-3.91992 0.69334,-2.09333 0.54696,-4.33448 0.62696,-6.50781 -0.04,-21.080002 -0.0533,-42.171956 0,-63.251956 13.45333,-0.01333 26.91971,0.09266 40.37304,-0.02734 5.21334,0.173333 9.78639,-4.133568 10.37305,-9.240235 0.93334,-7.44 1.57406,-14.920052 2.41406,-22.386718 -17.72,-0.01333 -35.44015,0.01333 -53.16015,0 0,-16.44 -0.0133,-32.8803135 0,-49.320313 18.10666,-0.08 36.21398,0.106589 54.33398,-0.08008 4.41334,0.12 8.14565,-3.691901 8.95899,-7.865235 1.44,-7.746666 2.30815,-15.586718 3.52148,-23.386718 -34.44,-0.02667 -68.89398,-0.02667 -103.33398,0 -0.26834,-0.04167 -0.53328,-0.06516 -0.79493,-0.07031 z m 355.97657,38.753907 c -1.51318,-0.03023 -3.02229,0.01391 -4.51563,0.128906 -15.70666,0.826666 -30.01333,9.6261199 -40,21.4394529 -0.61333,-6.7199998 -3.48021,-14.2670569 -10.54687,-16.4003909 -9.76,-1.173333 -19.65313,-0.252864 -29.45313,-0.519531 -0.0533,42.319999 0.001,84.640939 -0.0254,126.960935 0.0267,3.54667 -0.22737,7.13268 0.2793,10.66602 0.68,3.45333 4.51943,5.12034 7.74609,5.01367 11.45334,0.0667 22.92005,3.4e-4 34.38672,0.0137 0.0133,-30.999997 -0.0263,-61.999999 0.0137,-92.999998 -0.45333,-5.84 4.0262,-10.134167 7.51953,-14.1875 5.44,-6.466667 14.8011,-10.613438 23.1211,-7.773438 6.41333,2.68 7.15844,10.667032 7.39844,16.707032 0.24,30.599999 -0.0928,61.2125 0.17382,91.812504 -0.12,3.96 3.93422,6.54739 7.57422,6.41406 11.57334,0.0933 23.14576,6.8e-4 34.73242,0.0273 0.0133,-34.093331 0.0133,-68.199634 0,-102.292967 -0.04,-11.506666 -2.06708,-23.9210418 -10.09375,-32.7343749 -6.93,-8.2366661 -17.7183,-12.0637501 -28.31054,-12.2753901 z m -186.64063,0.326171 c -4.61523,-0.05016 -9.26109,0.537422 -13.62109,1.482422 -12.52,2.293334 -23.28078,10.412787 -30.80078,20.4394534 -10.48,14.1333326 -14.87979,31.9743236 -15.45313,49.3476566 -0.29333,17.533332 1.51998,35.639609 9.30664,51.599609 5.38667,11.74667 15.30763,21.63951 27.6543,25.82617 12.25333,4 26.14643,3.8806 37.75977,-2.05273 7.34666,-4.2 13.49388,-10.23899 18.56054,-16.95899 3.69334,6.29334 8.98646,11.66581 15.45313,15.11914 5.94666,3.45334 13.99935,3.85295 19.66601,-0.40039 8.13334,-5.04 9.42732,-15.3333 13.33399,-23.30664 -7.14667,-2.906664 -11.48065,-10.199164 -11.33399,-17.812498 -0.26666,-32.986665 -0.0128,-65.974271 -0.13281,-98.960937 -8.48,0.02667 -16.9474,-0.118984 -25.41406,0.04102 -6.97334,-0.306667 -12.5736,5.7052081 -13.9336,12.1718746 -2.84,-3.5999999 -6.02703,-6.9190105 -9.70703,-9.6523436 -6.04166,-4.941667 -13.64583,-6.799219 -21.33789,-6.882813 z m 306.57617,0.0332 c -8.30213,-0.101432 -16.61966,0.931511 -24.61132,3.089844 -11.68,3.613333 -23.30576,9.9597662 -29.73243,20.7597659 -6.16,9.5733331 -6.46724,21.9075521 -3.2539,32.5742191 3.64,12.053333 13.98656,20.838411 25.22656,25.705078 12.61333,6.533333 27.28096,7.787448 39.6543,14.800781 8.29333,5.106667 6.02586,18.880469 -2.49414,22.480473 -7.77334,2.32 -16.09401,2.07909 -24.02735,0.73242 -8.28,-1.52 -15.70591,-5.705575 -22.89257,-9.878909 -2.68,-1.96 -6.16076,-0.480572 -8.10743,1.746094 -5.56,5.986667 -10.87869,12.185625 -16.33203,18.265625 18.76,17.18667 45.58706,23.14831 70.40039,20.68164 15.12,-1.81333 30.55818,-6.97435 41.46489,-18.04101 15.5066,-16.213338 14.8806,-46.093677 -3.3594,-60.013677 -14.09335,-10.573333 -31.91926,-13.358646 -47.8926,-19.945312 -4.46666,-1.893334 -9.94643,-4.374714 -10.75976,-9.748047 -1.45334,-5.706667 3.13286,-11.212448 8.51953,-12.425781 7.34667,-0.96 14.82641,-0.239427 22.06641,1.253906 6.41333,1.4 12.20031,4.639583 18.32031,6.90625 3.05331,1.053333 5.74661,-1.666667 7.30661,-4 3.88,-5.853333 7.6532,-11.786693 11.4532,-17.6933595 C 1001.7595,-12.678854 983.56742,-18.394036 965.30273,-18.617188 Z M 667.03906,11.84375 c 10.23196,0.0774 20.33253,8.688177 19.69336,19.402344 -0.0667,16.906666 0.0803,33.812084 -0.0664,50.71875 -0.08,6.36 -4.70753,11.321224 -8.88086,15.58789 -6.30667,5.146666 -16.09258,5.707166 -22.89258,1.173828 -5.18667,-3.226666 -7.788,-9.161458 -9.36133,-14.828124 -2.82667,-10.6 -2.75977,-21.678595 -2.75977,-32.558594 0.48,-9.853333 1.73438,-20.080105 6.73438,-28.773438 2.42667,-4.08 5.97193,-7.747318 10.55859,-9.333984 2.245,-0.97 4.61339,-1.406533 6.97461,-1.388672 z" transform="matrix(0.75000002,0,0,0.75000002,385.26104,134.50573)"/>
      </g>
    </g>
  </g>
</svg>