<?xml version="1.0" encoding="UTF-8"?>
<svg xmlns="http://www.w3.org/2000/svg" xmlns:xlink="http://www.w3.org/1999/xlink" version="1.1" width="360" height="360">
  <defs>
    <linearGradient id="g1" xlink:href="#a" gradientUnits="userSpaceOnUse" x2="360" y2="360"/>
    <linearGradient id="g2" xlink:href="#b" gradientUnits="userSpaceOnUse" x1="60" y1="60" x2="180" y2="180"/>
    <linearGradient id="a">
      <stop offset="0" stop-color="#882E5E"/>
      <stop offset="1" stop-color="#D11F3E"/>
    </linearGradient>
    <linearGradient id="b">
      <stop offset="0" stop-color="#AFAFB1"/>
      <stop offset="1" stop-color="white"/>
    </linearGradient>
  </defs>
  <path d="m0 0h360v360h-360z" style="fill: url(#g1);"/>
  <path d="m100 60c-22 0-40 18-40 40h140c32 0 60 28 60 60s-28 60-60 60h-40c-11 0-20 9-20 20v20h60c56 0 100-44 100-100s-44-100-100-100zm-10 80c-16 0-30 14-30 30v90c0 22 18 40 40 40v-100c0-11 9-20 20-20h80c11 0 20-9 20-20s-9-20-20-20z" style="fill: url(#g2);"/>
</svg>